<svg width="709" height="618" viewBox="0 0 709 618" fill="none" xmlns="http://www.w3.org/2000/svg">
<g clip-path="url(#clip0_34_4677)">
<path d="M472.125 618L471.975 617.985L236.876 594.42L23.092 615.848C17.5102 616.408 11.951 614.552 7.63746 610.688C3.3239 606.825 0.609277 601.271 0.0907764 595.249C0.0304274 594.548 0.00022879 593.845 0.000176352 593.14V44.5293C-0.0214019 38.8391 1.93794 33.3477 5.49028 29.1422C9.04262 24.9367 13.9289 22.3237 19.1818 21.8207L236.876 0L237.026 0.0154107L472.125 23.5802L685.908 2.15182C691.49 1.59232 697.049 3.44828 701.362 7.31141C705.676 11.1745 708.391 16.7284 708.909 22.7512C708.97 23.4524 709 24.1554 709 24.8604V573.47C709.021 579.16 707.062 584.652 703.51 588.858C699.958 593.063 695.071 595.676 689.818 596.179L472.125 618Z" fill="white"/>
<path d="M327.722 202.959C282.213 167.196 234.33 133.284 185.415 102.171L182.96 100.609V206.134H331.762L327.722 202.959ZM186.211 202.625V106.758C232.745 136.46 278.311 168.687 321.763 202.625L186.211 202.625ZM558.039 419.824C538.358 397.745 518.167 376.169 497.466 355.096C491.759 349.281 486.017 343.512 480.24 337.79C444.982 302.843 408.565 269.607 370.987 238.081L370.548 237.712H182.96V422.797H560.69L558.039 419.824ZM186.211 419.288V241.221H369.434C405.668 271.633 440.92 303.746 475.191 337.562C481.142 343.43 487.052 349.345 492.922 355.307C513.441 376.114 533.48 397.441 553.04 419.288H186.211ZM558.039 419.824C538.358 397.745 518.167 376.169 497.466 355.096C491.759 349.281 486.017 343.512 480.24 337.79C444.982 302.843 408.565 269.607 370.987 238.081L370.548 237.712H182.96V422.797H560.69L558.039 419.824ZM186.211 419.288V241.221H369.434C405.668 271.633 440.92 303.746 475.191 337.562C481.142 343.43 487.052 349.345 492.922 355.307C513.441 376.114 533.48 397.441 553.04 419.288H186.211ZM327.722 202.959C282.213 167.196 234.33 133.284 185.415 102.171L182.96 100.609V206.134H331.762L327.722 202.959ZM186.211 202.625V106.758C232.745 136.46 278.311 168.687 321.763 202.625L186.211 202.625ZM327.722 202.959C282.213 167.196 234.33 133.284 185.415 102.171L182.96 100.609V206.134H331.762L327.722 202.959ZM186.211 202.625V106.758C232.745 136.46 278.311 168.687 321.763 202.625L186.211 202.625ZM558.039 419.824C538.358 397.745 518.167 376.169 497.466 355.096C491.759 349.281 486.017 343.512 480.24 337.79C444.982 302.843 408.565 269.607 370.987 238.081L370.548 237.712H182.96V422.797H560.69L558.039 419.824ZM186.211 419.288V241.221H369.434C405.668 271.633 440.92 303.746 475.191 337.562C481.142 343.43 487.052 349.345 492.922 355.307C513.441 376.114 533.48 397.441 553.04 419.288H186.211ZM22.0113 454.376V457.884H150.441V508.761H22.0113V512.269H153.693V454.376H22.0113ZM182.96 543.848V579.4L186.211 579.075V547.357H686.99V543.848L182.96 543.848ZM686.99 457.884V454.376H182.96V512.269H686.99V508.761H186.211V457.884L686.99 457.884ZM383.312 202.625C320.927 150.7 255.045 103.861 186.211 62.4959V26.9702L182.959 27.2948V63.0955L185.463 66.0661C254.016 107.318 319.632 154.014 381.767 205.766L382.206 206.134H686.99V202.625L383.312 202.625ZM150.441 202.625H22.0113V206.134H153.693V30.2245L150.441 30.5491L150.441 202.625ZM686.99 237.712H419.049L422.553 240.818C455.542 270.107 487.933 301.17 519.725 334.009C524.245 338.676 528.749 343.38 533.236 348.123C555.576 371.675 577.48 395.996 598.947 421.087L601.628 422.797H686.99V419.288H601.833C580.599 394.447 558.904 370.324 536.748 346.921C532.318 342.237 527.871 337.585 523.408 332.965C492.304 300.764 460.536 270.183 428.105 241.221H686.99V237.712ZM22.0113 543.848V547.357H150.441V582.654L153.693 582.33V543.848H22.0113ZM22.0113 237.712V241.221H150.441V419.288H22.0113V422.797H153.693V237.712H22.0113ZM327.722 202.959C282.213 167.196 234.33 133.284 185.415 102.171L182.96 100.609V206.134H331.762L327.722 202.959ZM186.211 202.625V106.758C232.745 136.46 278.311 168.687 321.763 202.625L186.211 202.625ZM558.039 419.824C538.358 397.745 518.167 376.169 497.466 355.096C491.759 349.281 486.017 343.512 480.24 337.79C444.982 302.843 408.565 269.607 370.987 238.081L370.548 237.712H182.96V422.797H560.69L558.039 419.824ZM186.211 419.288V241.221H369.434C405.668 271.633 440.92 303.746 475.191 337.562C481.142 343.43 487.052 349.345 492.922 355.307C513.441 376.114 533.48 397.441 553.04 419.288H186.211ZM327.722 202.959C282.213 167.196 234.33 133.284 185.415 102.171L182.96 100.609V206.134H331.762L327.722 202.959ZM186.211 202.625V106.758C232.745 136.46 278.311 168.687 321.763 202.625L186.211 202.625ZM558.039 419.824C538.358 397.745 518.167 376.169 497.466 355.096C491.759 349.281 486.017 343.512 480.24 337.79C444.982 302.843 408.565 269.607 370.987 238.081L370.548 237.712H182.96V422.797H560.69L558.039 419.824ZM186.211 419.288V241.221H369.434C405.668 271.633 440.92 303.746 475.191 337.562C481.142 343.43 487.052 349.345 492.922 355.307C513.441 376.114 533.48 397.441 553.04 419.288H186.211Z" fill="black"/>
<path d="M363.132 230.896C363.132 275.326 288.573 374.305 288.573 374.305C288.573 374.305 214.014 275.327 214.014 230.896C214.014 209.559 221.87 189.096 235.852 174.009C249.835 158.922 268.799 150.446 288.573 150.446C308.347 150.446 327.312 158.922 341.294 174.009C355.277 189.096 363.132 209.559 363.132 230.896Z" fill="#0085FF"/>
<path d="M322.658 227.398C322.658 234.672 320.659 241.782 316.914 247.83C313.169 253.878 307.846 258.592 301.618 261.375C295.389 264.159 288.536 264.887 281.925 263.468C275.313 262.049 269.24 258.546 264.473 253.403C259.706 248.26 256.46 241.707 255.145 234.573C253.83 227.439 254.505 220.044 257.085 213.324C259.664 206.604 264.033 200.86 269.638 196.819C275.243 192.778 281.833 190.621 288.574 190.621C293.051 190.619 297.484 191.568 301.62 193.416C305.756 195.263 309.514 197.972 312.68 201.388C315.845 204.803 318.356 208.858 320.068 213.321C321.78 217.784 322.66 222.568 322.658 227.398Z" fill="white"/>
<path d="M288.573 432.369C299.673 432.369 308.672 422.66 308.672 410.682C308.672 398.705 299.673 388.996 288.573 388.996C277.473 388.996 268.475 398.705 268.475 410.682C268.475 422.66 277.473 432.369 288.573 432.369Z" fill="#0085FF"/>
<path d="M664.852 386.831C673.158 386.831 679.891 379.565 679.891 370.603C679.891 361.64 673.158 354.375 664.852 354.375C656.546 354.375 649.812 361.64 649.812 370.603C649.812 379.565 656.546 386.831 664.852 386.831Z" fill="white"/>
<path d="M664.897 377.886L668.205 372.948L664.852 379.108L664.49 378.424L664.897 377.886Z" fill="#CBCBCB"/>
<path d="M622.088 371.259C634.355 371.259 644.3 360.528 644.3 347.292C644.3 334.055 634.355 323.325 622.088 323.325C609.821 323.325 599.876 334.055 599.876 347.292C599.876 360.528 609.821 371.259 622.088 371.259Z" fill="white"/>
<path d="M622.155 358.047L627.039 350.757L622.088 359.853L621.554 358.842L622.155 358.047Z" fill="#CBCBCB"/>
<path d="M621.62 365.411L616.736 358.121L621.687 367.216L622.222 366.206L621.62 365.411Z" fill="#CBCBCB"/>
<path d="M106.392 386.831C114.698 386.831 121.432 379.565 121.432 370.603C121.432 361.64 114.698 354.375 106.392 354.375C98.0862 354.375 91.3527 361.64 91.3527 370.603C91.3527 379.565 98.0862 386.831 106.392 386.831Z" fill="white"/>
<path d="M106.438 377.886L109.745 372.948L106.392 379.108L106.031 378.424L106.438 377.886Z" fill="#CBCBCB"/>
<path d="M106.076 382.871L102.768 377.935L106.121 384.093L106.483 383.409L106.076 382.871Z" fill="#CBCBCB"/>
<path d="M63.6285 371.259C75.896 371.259 85.8407 360.528 85.8407 347.292C85.8407 334.055 75.896 323.325 63.6285 323.325C51.3611 323.325 41.4164 334.055 41.4164 347.292C41.4164 360.528 51.3611 371.259 63.6285 371.259Z" fill="white"/>
<path d="M63.6958 358.047L68.5794 350.757L63.629 359.853L63.0941 358.842L63.6958 358.047Z" fill="#CBCBCB"/>
<path d="M63.161 365.411L58.2764 358.121L63.2278 367.216L63.7627 366.206L63.161 365.411Z" fill="#CBCBCB"/>
</g>
<defs>
<clipPath id="clip0_34_4677">
<rect width="709" height="618" fill="white"/>
</clipPath>
</defs>
</svg>
