<svg width="38" height="38" viewBox="0 0 38 38" fill="none" xmlns="http://www.w3.org/2000/svg">
<path d="M35.5295 0.533491C37.099 1.39142 37.9888 2.62217 37.9895 4.3815C37.9935 14.2293 37.9816 24.077 38 33.9248C38.0035 35.8211 35.9195 38.003 33.8655 37.9971C24.0419 37.9691 14.2182 37.9653 4.39462 38C2.29218 38.0074 0.6231 36.4706 0.142365 34.6935C0.0370029 34.3041 0.00862864 33.8846 0.00833401 33.479C0.00123852 23.777 -0.00722967 14.0749 0.0107069 4.37292C0.0146231 2.25371 1.78183 0.294263 3.89481 0.130519C4.68803 0.0690477 5.48415 0.00886515 6.27902 0.00810639C15.2135 -0.00045354 24.148 -0.0101993 33.0823 0.024681C33.8847 0.0278075 34.6859 0.339915 35.5295 0.533491ZM30.1799 29.1123C30.5725 28.6842 30.9765 28.2656 31.3557 27.8262C32.2794 26.7558 33.1492 25.6527 33.5801 24.2795C34.0012 22.9374 33.554 21.8593 32.3455 21.2196C31.2144 20.6209 29.9888 20.4192 28.7606 20.3948C27.2579 20.3651 25.7425 20.4625 24.2484 20.6366C22.6308 20.825 20.9984 21.0453 19.4316 21.4653C16.6396 22.2138 13.8891 23.1134 11.1275 23.9695C9.96423 24.3301 10.0825 24.3714 9.88619 25.5077C9.61135 27.0984 9.2516 28.6906 8.74049 30.2216C8.28254 31.5934 7.57069 32.8832 6.96027 34.2325C7.04874 34.2054 7.19692 34.174 7.33332 34.1159C8.67396 33.5448 10.0106 32.9647 11.3523 32.396C15.0731 30.819 18.8121 29.2864 22.7186 28.1987C24.1338 27.8047 25.5573 27.4208 27.0548 27.4884C27.905 27.5269 28.5825 28.0556 28.4408 28.639C28.3425 29.0439 28.1728 29.4568 27.9354 29.7994C27.3658 30.6217 26.7375 31.4047 26.1146 32.2277C26.267 32.2277 26.4837 32.2946 26.5752 32.2175C27.7653 31.2155 28.9376 30.1931 30.1799 29.1123ZM10.4281 12.9265C10.1863 13.0242 9.94443 13.1218 9.82576 13.1698C10.0261 15.9039 10.2194 18.5428 10.4141 21.1999C10.7316 21.1074 11.1256 20.9894 11.5216 20.8782C12.4313 20.6229 13.332 20.3256 14.2544 20.1265C16.7106 19.5964 19.1673 19.0596 21.6416 18.6235C23.132 18.3607 24.6528 18.2372 26.1657 18.1364C26.9967 18.081 27.8459 18.154 28.6762 18.2547C30.1341 18.4315 31.5767 18.7033 32.8062 19.5776C33.2097 19.8645 33.5805 20.1958 33.9816 20.5191C34.0262 20.4219 34.046 20.4002 34.0419 20.3843C34.0073 20.2492 33.9655 20.1159 33.9312 19.9807C33.0168 16.3813 30.6322 14.0905 27.2156 12.7509C25.4972 12.077 23.709 11.6463 21.846 11.6258C20.0441 11.6059 18.2224 11.4633 16.4446 11.6691C14.4486 11.9002 12.4921 12.4612 10.4281 12.9265ZM7.17947 6.49602C7.6675 7.56418 8.18154 8.62195 8.62899 9.7063C8.77932 10.0706 8.97587 10.1722 9.32094 10.1205C9.62739 10.0745 9.93061 10.0054 10.238 9.96818C12.5856 9.68357 14.9278 9.27174 17.2841 9.16549C19.1506 9.08133 21.0499 9.26924 22.9066 9.52947C24.6753 9.77736 26.3985 10.3007 27.9473 11.2457C28.4316 11.5411 28.9176 11.8339 29.573 12.231C29.4455 11.9319 29.4218 11.7666 29.3263 11.6699C28.6582 10.9934 27.9949 10.3104 27.2931 9.66863C25.7893 8.29371 24.0063 7.32381 22.1479 6.53108C18.5109 4.97962 14.6506 4.29742 10.7197 4.01506C8.97883 3.89001 7.22666 3.91609 5.47951 3.8789C5.3501 3.87615 5.21974 3.91663 5.19047 3.92122C5.83727 4.7562 6.48128 5.58758 7.17947 6.49602Z" fill="#0085FF"/>
</svg>
